<svg xmlns="http://www.w3.org/2000/svg" width="860" height="360" viewBox="0 0 860 360" font-family="ui-monospace, SFMono-Regular, Menlo, Consolas, monospace"><defs><linearGradient id="sbg" x1="0" y1="0" x2="0" y2="1"><stop offset="0" stop-color="#111722"/><stop offset="1" stop-color="#0d1117"/></linearGradient></defs><rect width="860" height="360" rx="12" fill="url(#sbg)"/><rect x="0.5" y="0.5" width="859" height="359" rx="12" fill="none" stroke="#30363d"/><line x1="0" y1="30" x2="860" y2="30" stroke="#30363d"/><circle cx="20" cy="15.0" r="5" fill="#ff5f56"/><circle cx="36" cy="15.0" r="5" fill="#ffbd2e"/><circle cx="52" cy="15.0" r="5" fill="#27c93f"/><text x="430.0" y="19.0" fill="#7d8590" font-size="12" text-anchor="middle">PardheevKrishna@github: ~$ neofetch --skills</text><g opacity="0" transform="translate(0,5)"><text x="25" y="55" fill="#58a6ff" font-size="13" font-weight="700">&#8212; Languages</text><rect x="25.0" y="65.0" width="21.0" height="22" rx="4" fill="#21262d" stroke="#30363d" stroke-width="1"/><text x="35.5" y="80.0" fill="#c9d1d9" font-size="11" text-anchor="middle">C</text><rect x="52.0" y="65.0" width="35.0" height="22" rx="4" fill="#21262d" stroke="#30363d" stroke-width="1"/><text x="69.5" y="80.0" fill="#c9d1d9" font-size="11" text-anchor="middle">C++</text><rect x="93.0" y="65.0" width="56.0" height="22" rx="4" fill="#21262d" stroke="#30363d" stroke-width="1"/><text x="121.0" y="80.0" fill="#c9d1d9" font-size="11" text-anchor="middle">Python</text><rect x="155.0" y="65.0" width="42.0" height="22" rx="4" fill="#21262d" stroke="#30363d" stroke-width="1"/><text x="176.0" y="80.0" fill="#c9d1d9" font-size="11" text-anchor="middle">Java</text><rect x="25.0" y="95.0" width="84.0" height="22" rx="4" fill="#21262d" stroke="#30363d" stroke-width="1"/><text x="67.0" y="110.0" fill="#c9d1d9" font-size="11" text-anchor="middle">JavaScript</text><rect x="115.0" y="95.0" width="84.0" height="22" rx="4" fill="#21262d" stroke="#30363d" stroke-width="1"/><text x="157.0" y="110.0" fill="#c9d1d9" font-size="11" text-anchor="middle">TypeScript</text><rect x="205.0" y="95.0" width="35.0" height="22" rx="4" fill="#21262d" stroke="#30363d" stroke-width="1"/><text x="222.5" y="110.0" fill="#c9d1d9" font-size="11" text-anchor="middle">PHP</text><rect x="246.0" y="95.0" width="21.0" height="22" rx="4" fill="#21262d" stroke="#30363d" stroke-width="1"/><text x="256.5" y="110.0" fill="#c9d1d9" font-size="11" text-anchor="middle">R</text><rect x="25.0" y="125.0" width="70.0" height="22" rx="4" fill="#21262d" stroke="#30363d" stroke-width="1"/><text x="60.0" y="140.0" fill="#c9d1d9" font-size="11" text-anchor="middle">Markdown</text><animate attributeName="opacity" from="0" to="1" begin="0.10s" dur="0.4s" fill="freeze"/><animateTransform attributeName="transform" type="translate" from="0 5" to="0 0" begin="0.10s" dur="0.4s" fill="freeze" calcMode="spline" keySplines="0.2 0.8 0.2 1"/></g><g opacity="0" transform="translate(0,5)"><text x="305" y="55" fill="#58a6ff" font-size="13" font-weight="700">&#8212; Web Dev</text><rect x="305.0" y="65.0" width="49.0" height="22" rx="4" fill="#21262d" stroke="#30363d" stroke-width="1"/><text x="329.5" y="80.0" fill="#c9d1d9" font-size="11" text-anchor="middle">HTML5</text><rect x="360.0" y="65.0" width="42.0" height="22" rx="4" fill="#21262d" stroke="#30363d" stroke-width="1"/><text x="381.0" y="80.0" fill="#c9d1d9" font-size="11" text-anchor="middle">CSS3</text><rect x="408.0" y="65.0" width="49.0" height="22" rx="4" fill="#21262d" stroke="#30363d" stroke-width="1"/><text x="432.5" y="80.0" fill="#c9d1d9" font-size="11" text-anchor="middle">React</text><rect x="463.0" y="65.0" width="63.0" height="22" rx="4" fill="#21262d" stroke="#30363d" stroke-width="1"/><text x="494.5" y="80.0" fill="#c9d1d9" font-size="11" text-anchor="middle">Next.js</text><rect x="305.0" y="95.0" width="63.0" height="22" rx="4" fill="#21262d" stroke="#30363d" stroke-width="1"/><text x="336.5" y="110.0" fill="#c9d1d9" font-size="11" text-anchor="middle">Node.js</text><rect x="374.0" y="95.0" width="63.0" height="22" rx="4" fill="#21262d" stroke="#30363d" stroke-width="1"/><text x="405.5" y="110.0" fill="#c9d1d9" font-size="11" text-anchor="middle">Express</text><rect x="443.0" y="95.0" width="70.0" height="22" rx="4" fill="#21262d" stroke="#30363d" stroke-width="1"/><text x="478.0" y="110.0" fill="#c9d1d9" font-size="11" text-anchor="middle">Tailwind</text><rect x="305.0" y="125.0" width="70.0" height="22" rx="4" fill="#21262d" stroke="#30363d" stroke-width="1"/><text x="340.0" y="140.0" fill="#c9d1d9" font-size="11" text-anchor="middle">Three.js</text><rect x="381.0" y="125.0" width="56.0" height="22" rx="4" fill="#21262d" stroke="#30363d" stroke-width="1"/><text x="409.0" y="140.0" fill="#c9d1d9" font-size="11" text-anchor="middle">Vue.js</text><animate attributeName="opacity" from="0" to="1" begin="0.18s" dur="0.4s" fill="freeze"/><animateTransform attributeName="transform" type="translate" from="0 5" to="0 0" begin="0.18s" dur="0.4s" fill="freeze" calcMode="spline" keySplines="0.2 0.8 0.2 1"/></g><g opacity="0" transform="translate(0,5)"><text x="585" y="55" fill="#58a6ff" font-size="13" font-weight="700">&#8212; Databases</text><rect x="585.0" y="65.0" width="49.0" height="22" rx="4" fill="#21262d" stroke="#30363d" stroke-width="1"/><text x="609.5" y="80.0" fill="#c9d1d9" font-size="11" text-anchor="middle">MySQL</text><rect x="640.0" y="65.0" width="84.0" height="22" rx="4" fill="#21262d" stroke="#30363d" stroke-width="1"/><text x="682.0" y="80.0" fill="#c9d1d9" font-size="11" text-anchor="middle">PostgreSQL</text><rect x="730.0" y="65.0" width="63.0" height="22" rx="4" fill="#21262d" stroke="#30363d" stroke-width="1"/><text x="761.5" y="80.0" fill="#c9d1d9" font-size="11" text-anchor="middle">MongoDB</text><rect x="585.0" y="95.0" width="49.0" height="22" rx="4" fill="#21262d" stroke="#30363d" stroke-width="1"/><text x="609.5" y="110.0" fill="#c9d1d9" font-size="11" text-anchor="middle">Redis</text><animate attributeName="opacity" from="0" to="1" begin="0.26s" dur="0.4s" fill="freeze"/><animateTransform attributeName="transform" type="translate" from="0 5" to="0 0" begin="0.26s" dur="0.4s" fill="freeze" calcMode="spline" keySplines="0.2 0.8 0.2 1"/></g><g opacity="0" transform="translate(0,5)"><text x="25" y="200" fill="#58a6ff" font-size="13" font-weight="700">&#8212; Basic AI &amp; Data Sci</text><rect x="25.0" y="210.0" width="56.0" height="22" rx="4" fill="#21262d" stroke="#30363d" stroke-width="1"/><text x="53.0" y="225.0" fill="#c9d1d9" font-size="11" text-anchor="middle">Python</text><rect x="87.0" y="210.0" width="56.0" height="22" rx="4" fill="#21262d" stroke="#30363d" stroke-width="1"/><text x="115.0" y="225.0" fill="#c9d1d9" font-size="11" text-anchor="middle">OpenCV</text><rect x="149.0" y="210.0" width="49.0" height="22" rx="4" fill="#21262d" stroke="#30363d" stroke-width="1"/><text x="173.5" y="225.0" fill="#c9d1d9" font-size="11" text-anchor="middle">NumPy</text><rect x="204.0" y="210.0" width="56.0" height="22" rx="4" fill="#21262d" stroke="#30363d" stroke-width="1"/><text x="232.0" y="225.0" fill="#c9d1d9" font-size="11" text-anchor="middle">Pandas</text><rect x="25.0" y="240.0" width="98.0" height="22" rx="4" fill="#21262d" stroke="#30363d" stroke-width="1"/><text x="74.0" y="255.0" fill="#c9d1d9" font-size="11" text-anchor="middle">scikit-learn</text><rect x="129.0" y="240.0" width="49.0" height="22" rx="4" fill="#21262d" stroke="#30363d" stroke-width="1"/><text x="153.5" y="255.0" fill="#c9d1d9" font-size="11" text-anchor="middle">SciPy</text><rect x="184.0" y="240.0" width="84.0" height="22" rx="4" fill="#21262d" stroke="#30363d" stroke-width="1"/><text x="226.0" y="255.0" fill="#c9d1d9" font-size="11" text-anchor="middle">Prompt Eng</text><animate attributeName="opacity" from="0" to="1" begin="0.34s" dur="0.4s" fill="freeze"/><animateTransform attributeName="transform" type="translate" from="0 5" to="0 0" begin="0.34s" dur="0.4s" fill="freeze" calcMode="spline" keySplines="0.2 0.8 0.2 1"/></g><g opacity="0" transform="translate(0,5)"><text x="305" y="200" fill="#58a6ff" font-size="13" font-weight="700">&#8212; Advanced AI &amp; ML</text><rect x="305.0" y="210.0" width="63.0" height="22" rx="4" fill="#21262d" stroke="#30363d" stroke-width="1"/><text x="336.5" y="225.0" fill="#c9d1d9" font-size="11" text-anchor="middle">PyTorch</text><rect x="374.0" y="210.0" width="84.0" height="22" rx="4" fill="#21262d" stroke="#30363d" stroke-width="1"/><text x="416.0" y="225.0" fill="#c9d1d9" font-size="11" text-anchor="middle">TensorFlow</text><rect x="464.0" y="210.0" width="49.0" height="22" rx="4" fill="#21262d" stroke="#30363d" stroke-width="1"/><text x="488.5" y="225.0" fill="#c9d1d9" font-size="11" text-anchor="middle">Keras</text><rect x="305.0" y="240.0" width="42.0" height="22" rx="4" fill="#21262d" stroke="#30363d" stroke-width="1"/><text x="326.0" y="255.0" fill="#c9d1d9" font-size="11" text-anchor="middle">LLMs</text><rect x="353.0" y="240.0" width="35.0" height="22" rx="4" fill="#21262d" stroke="#30363d" stroke-width="1"/><text x="370.5" y="255.0" fill="#c9d1d9" font-size="11" text-anchor="middle">RAG</text><rect x="394.0" y="240.0" width="84.0" height="22" rx="4" fill="#21262d" stroke="#30363d" stroke-width="1"/><text x="436.0" y="255.0" fill="#c9d1d9" font-size="11" text-anchor="middle">Gemini API</text><rect x="305.0" y="270.0" width="77.0" height="22" rx="4" fill="#21262d" stroke="#30363d" stroke-width="1"/><text x="343.5" y="285.0" fill="#c9d1d9" font-size="11" text-anchor="middle">LangChain</text><animate attributeName="opacity" from="0" to="1" begin="0.42s" dur="0.4s" fill="freeze"/><animateTransform attributeName="transform" type="translate" from="0 5" to="0 0" begin="0.42s" dur="0.4s" fill="freeze" calcMode="spline" keySplines="0.2 0.8 0.2 1"/></g><g opacity="0" transform="translate(0,5)"><text x="585" y="200" fill="#58a6ff" font-size="13" font-weight="700">&#8212; Cloud &amp; DevOps</text><rect x="585.0" y="210.0" width="35.0" height="22" rx="4" fill="#21262d" stroke="#30363d" stroke-width="1"/><text x="602.5" y="225.0" fill="#c9d1d9" font-size="11" text-anchor="middle">AWS</text><rect x="626.0" y="210.0" width="35.0" height="22" rx="4" fill="#21262d" stroke="#30363d" stroke-width="1"/><text x="643.5" y="225.0" fill="#c9d1d9" font-size="11" text-anchor="middle">GCP</text><rect x="667.0" y="210.0" width="70.0" height="22" rx="4" fill="#21262d" stroke="#30363d" stroke-width="1"/><text x="702.0" y="225.0" fill="#c9d1d9" font-size="11" text-anchor="middle">Firebase</text><rect x="743.0" y="210.0" width="56.0" height="22" rx="4" fill="#21262d" stroke="#30363d" stroke-width="1"/><text x="771.0" y="225.0" fill="#c9d1d9" font-size="11" text-anchor="middle">Docker</text><rect x="585.0" y="240.0" width="35.0" height="22" rx="4" fill="#21262d" stroke="#30363d" stroke-width="1"/><text x="602.5" y="255.0" fill="#c9d1d9" font-size="11" text-anchor="middle">Git</text><rect x="626.0" y="240.0" width="112.0" height="22" rx="4" fill="#21262d" stroke="#30363d" stroke-width="1"/><text x="682.0" y="255.0" fill="#c9d1d9" font-size="11" text-anchor="middle">GitHub Actions</text><rect x="744.0" y="240.0" width="35.0" height="22" rx="4" fill="#21262d" stroke="#30363d" stroke-width="1"/><text x="761.5" y="255.0" fill="#c9d1d9" font-size="11" text-anchor="middle">NPM</text><animate attributeName="opacity" from="0" to="1" begin="0.50s" dur="0.4s" fill="freeze"/><animateTransform attributeName="transform" type="translate" from="0 5" to="0 0" begin="0.50s" dur="0.4s" fill="freeze" calcMode="spline" keySplines="0.2 0.8 0.2 1"/></g></svg>